<svg width="355" height="60" viewBox="0 0 355 60" fill="none" xmlns="http://www.w3.org/2000/svg">
<path d="M1.74119 1.74119H335C345.084 1.74119 353.259 9.91594 353.259 20V58.2588H18C9.02051 58.2588 1.74119 50.9795 1.74119 42V1.74119Z" fill="url(#paint0_linear_992_6378)" stroke="white" stroke-width="3.48238"/>
<mask id="path-2-inside-1_992_6378" fill="white">
<path d="M100.447 44V17.09H110.665C117.997 17.09 121.663 20.756 121.663 28.088V33.002C121.663 40.334 117.997 44 110.665 44H100.447ZM106.063 38.93H110.977C114.357 38.93 116.047 37.24 116.047 33.86V27.23C116.047 23.85 114.357 22.16 110.977 22.16H106.063V38.93ZM127.142 42.947L135.137 17.09H143.717L151.712 42.947L151.01 44H146.33L144.692 38.54H134.162L132.524 44H127.844L127.142 42.947ZM135.683 33.47H143.171L139.739 22.16H139.115L135.683 33.47ZM157.952 44V17.09H176.36V22.16H163.568V28.79H175.19V33.86H163.568V44H157.952ZM180.806 22.16V17.09H202.802V22.16H194.612V44H188.996V22.16H180.806ZM204.849 42.947L212.844 17.09H221.424L229.419 42.947L228.717 44H224.037L222.399 38.54H211.869L210.231 44H205.551L204.849 42.947ZM213.39 33.47H220.878L217.446 22.16H216.822L213.39 33.47ZM235.66 44V17.09H248.764C253.132 17.09 255.316 19.274 255.316 23.642V28.088C255.316 31.338 254.107 33.366 251.689 34.172L256.096 42.83L255.433 44H250.597L245.839 34.64H241.276V44H235.66ZM241.276 29.57H248.53C249.31 29.57 249.7 29.18 249.7 28.4V23.33C249.7 22.55 249.31 22.16 248.53 22.16H241.276V29.57Z"/>
</mask>
<path d="M100.447 44V17.09H110.665C117.997 17.09 121.663 20.756 121.663 28.088V33.002C121.663 40.334 117.997 44 110.665 44H100.447ZM106.063 38.93H110.977C114.357 38.93 116.047 37.24 116.047 33.86V27.23C116.047 23.85 114.357 22.16 110.977 22.16H106.063V38.93ZM127.142 42.947L135.137 17.09H143.717L151.712 42.947L151.01 44H146.33L144.692 38.54H134.162L132.524 44H127.844L127.142 42.947ZM135.683 33.47H143.171L139.739 22.16H139.115L135.683 33.47ZM157.952 44V17.09H176.36V22.16H163.568V28.79H175.19V33.86H163.568V44H157.952ZM180.806 22.16V17.09H202.802V22.16H194.612V44H188.996V22.16H180.806ZM204.849 42.947L212.844 17.09H221.424L229.419 42.947L228.717 44H224.037L222.399 38.54H211.869L210.231 44H205.551L204.849 42.947ZM213.39 33.47H220.878L217.446 22.16H216.822L213.39 33.47ZM235.66 44V17.09H248.764C253.132 17.09 255.316 19.274 255.316 23.642V28.088C255.316 31.338 254.107 33.366 251.689 34.172L256.096 42.83L255.433 44H250.597L245.839 34.64H241.276V44H235.66ZM241.276 29.57H248.53C249.31 29.57 249.7 29.18 249.7 28.4V23.33C249.7 22.55 249.31 22.16 248.53 22.16H241.276V29.57Z" fill="white"/>
<path d="M100.447 44H96.9647V47.4824H100.447V44ZM100.447 17.09V13.6076H96.9647V17.09H100.447ZM106.063 38.93H102.581V42.4124H106.063V38.93ZM106.063 22.16V18.6776H102.581V22.16H106.063ZM103.929 44V17.09H96.9647V44H103.929ZM100.447 20.5724H110.665V13.6076H100.447V20.5724ZM110.665 20.5724C113.794 20.5724 115.502 21.3523 116.451 22.3019C117.401 23.2515 118.181 24.9588 118.181 28.088H125.146C125.146 23.8852 124.092 20.0935 121.376 17.3771C118.66 14.6607 114.868 13.6076 110.665 13.6076V20.5724ZM118.181 28.088V33.002H125.146V28.088H118.181ZM118.181 33.002C118.181 36.1312 117.401 37.8385 116.451 38.7881C115.502 39.7377 113.794 40.5176 110.665 40.5176V47.4824C114.868 47.4824 118.66 46.4293 121.376 43.7129C124.092 40.9965 125.146 37.2048 125.146 33.002H118.181ZM110.665 40.5176H100.447V47.4824H110.665V40.5176ZM106.063 42.4124H110.977V35.4476H106.063V42.4124ZM110.977 42.4124C113.204 42.4124 115.514 41.8533 117.242 40.1249C118.97 38.3965 119.53 36.0868 119.53 33.86H112.565C112.565 34.4252 112.493 34.778 112.427 34.9769C112.395 35.0729 112.365 35.1292 112.348 35.1579C112.332 35.1853 112.321 35.1963 112.317 35.2001C112.313 35.2039 112.302 35.2144 112.275 35.2309C112.246 35.2481 112.19 35.2775 112.094 35.3095C111.895 35.3758 111.542 35.4476 110.977 35.4476V42.4124ZM119.53 33.86V27.23H112.565V33.86H119.53ZM119.53 27.23C119.53 25.0032 118.97 22.6935 117.242 20.9651C115.514 19.2367 113.204 18.6776 110.977 18.6776V25.6424C111.542 25.6424 111.895 25.7142 112.094 25.7805C112.19 25.8125 112.246 25.8419 112.275 25.8591C112.302 25.8756 112.313 25.8861 112.317 25.8899C112.321 25.8937 112.332 25.9047 112.348 25.9321C112.365 25.9608 112.395 26.0171 112.427 26.1131C112.493 26.312 112.565 26.6648 112.565 27.23H119.53ZM110.977 18.6776H106.063V25.6424H110.977V18.6776ZM102.581 22.16V38.93H109.545V22.16H102.581ZM127.142 42.947L123.815 41.9183L123.325 43.5006L124.244 44.8787L127.142 42.947ZM135.137 17.09V13.6076H132.568L131.81 16.0613L135.137 17.09ZM143.717 17.09L147.044 16.0613L146.285 13.6076H143.717V17.09ZM151.712 42.947L154.609 44.8787L155.528 43.5006L155.039 41.9183L151.712 42.947ZM151.01 44V47.4824H152.873L153.907 45.9317L151.01 44ZM146.33 44L142.994 45.0007L143.739 47.4824H146.33V44ZM144.692 38.54L148.027 37.5393L147.283 35.0576H144.692V38.54ZM134.162 38.54V35.0576H131.571L130.826 37.5393L134.162 38.54ZM132.524 44V47.4824H135.115L135.859 45.0007L132.524 44ZM127.844 44L124.946 45.9317L125.98 47.4824H127.844V44ZM135.683 33.47L132.35 32.4588L130.987 36.9524H135.683V33.47ZM143.171 33.47V36.9524H147.867L146.503 32.4588L143.171 33.47ZM139.739 22.16L143.071 21.1488L142.321 18.6776H139.739V22.16ZM139.115 22.16V18.6776H136.532L135.782 21.1488L139.115 22.16ZM130.469 43.9757L138.464 18.1187L131.81 16.0613L123.815 41.9183L130.469 43.9757ZM135.137 20.5724H143.717V13.6076H135.137V20.5724ZM140.39 18.1187L148.385 43.9757L155.039 41.9183L147.044 16.0613L140.39 18.1187ZM148.814 41.0153L148.112 42.0683L153.907 45.9317L154.609 44.8787L148.814 41.0153ZM151.01 40.5176H146.33V47.4824H151.01V40.5176ZM149.665 42.9993L148.027 37.5393L141.356 39.5407L142.994 45.0007L149.665 42.9993ZM144.692 35.0576H134.162V42.0224H144.692V35.0576ZM130.826 37.5393L129.188 42.9993L135.859 45.0007L137.497 39.5407L130.826 37.5393ZM132.524 40.5176H127.844V47.4824H132.524V40.5176ZM130.741 42.0683L130.039 41.0153L124.244 44.8787L124.946 45.9317L130.741 42.0683ZM135.683 36.9524H143.171V29.9876H135.683V36.9524ZM146.503 32.4588L143.071 21.1488L136.406 23.1712L139.838 34.4812L146.503 32.4588ZM139.739 18.6776H139.115V25.6424H139.739V18.6776ZM135.782 21.1488L132.35 32.4588L139.015 34.4812L142.447 23.1712L135.782 21.1488ZM157.952 44H154.47V47.4824H157.952V44ZM157.952 17.09V13.6076H154.47V17.09H157.952ZM176.36 17.09H179.843V13.6076H176.36V17.09ZM176.36 22.16V25.6424H179.843V22.16H176.36ZM163.568 22.16V18.6776H160.086V22.16H163.568ZM163.568 28.79H160.086V32.2724H163.568V28.79ZM175.19 28.79H178.673V25.3076H175.19V28.79ZM175.19 33.86V37.3424H178.673V33.86H175.19ZM163.568 33.86V30.3776H160.086V33.86H163.568ZM163.568 44V47.4824H167.051V44H163.568ZM161.435 44V17.09H154.47V44H161.435ZM157.952 20.5724H176.36V13.6076H157.952V20.5724ZM172.878 17.09V22.16H179.843V17.09H172.878ZM176.36 18.6776H163.568V25.6424H176.36V18.6776ZM160.086 22.16V28.79H167.051V22.16H160.086ZM163.568 32.2724H175.19V25.3076H163.568V32.2724ZM171.708 28.79V33.86H178.673V28.79H171.708ZM175.19 30.3776H163.568V37.3424H175.19V30.3776ZM160.086 33.86V44H167.051V33.86H160.086ZM163.568 40.5176H157.952V47.4824H163.568V40.5176ZM180.806 22.16H177.323V25.6424H180.806V22.16ZM180.806 17.09V13.6076H177.323V17.09H180.806ZM202.802 17.09H206.284V13.6076H202.802V17.09ZM202.802 22.16V25.6424H206.284V22.16H202.802ZM194.612 22.16V18.6776H191.129V22.16H194.612ZM194.612 44V47.4824H198.094V44H194.612ZM188.996 44H185.513V47.4824H188.996V44ZM188.996 22.16H192.478V18.6776H188.996V22.16ZM184.288 22.16V17.09H177.323V22.16H184.288ZM180.806 20.5724H202.802V13.6076H180.806V20.5724ZM199.319 17.09V22.16H206.284V17.09H199.319ZM202.802 18.6776H194.612V25.6424H202.802V18.6776ZM191.129 22.16V44H198.094V22.16H191.129ZM194.612 40.5176H188.996V47.4824H194.612V40.5176ZM192.478 44V22.16H185.513V44H192.478ZM188.996 18.6776H180.806V25.6424H188.996V18.6776ZM204.849 42.947L201.522 41.9183L201.033 43.5006L201.952 44.8787L204.849 42.947ZM212.844 17.09V13.6076H210.276L209.517 16.0613L212.844 17.09ZM221.424 17.09L224.751 16.0613L223.993 13.6076H221.424V17.09ZM229.419 42.947L232.317 44.8787L233.235 43.5006L232.746 41.9183L229.419 42.947ZM228.717 44V47.4824H230.581L231.615 45.9317L228.717 44ZM224.037 44L220.702 45.0007L221.446 47.4824H224.037V44ZM222.399 38.54L225.735 37.5393L224.99 35.0576H222.399V38.54ZM211.869 38.54V35.0576H209.278L208.534 37.5393L211.869 38.54ZM210.231 44V47.4824H212.822L213.567 45.0007L210.231 44ZM205.551 44L202.654 45.9317L203.687 47.4824H205.551V44ZM213.39 33.47L210.058 32.4588L208.694 36.9524H213.39V33.47ZM220.878 33.47V36.9524H225.574L224.211 32.4588L220.878 33.47ZM217.446 22.16L220.779 21.1488L220.029 18.6776H217.446V22.16ZM216.822 22.16V18.6776H214.24L213.49 21.1488L216.822 22.16ZM208.176 43.9757L216.171 18.1187L209.517 16.0613L201.522 41.9183L208.176 43.9757ZM212.844 20.5724H221.424V13.6076H212.844V20.5724ZM218.097 18.1187L226.092 43.9757L232.746 41.9183L224.751 16.0613L218.097 18.1187ZM226.522 41.0153L225.82 42.0683L231.615 45.9317L232.317 44.8787L226.522 41.0153ZM228.717 40.5176H224.037V47.4824H228.717V40.5176ZM227.373 42.9993L225.735 37.5393L219.064 39.5407L220.702 45.0007L227.373 42.9993ZM222.399 35.0576H211.869V42.0224H222.399V35.0576ZM208.534 37.5393L206.896 42.9993L213.567 45.0007L215.205 39.5407L208.534 37.5393ZM210.231 40.5176H205.551V47.4824H210.231V40.5176ZM208.449 42.0683L207.747 41.0153L201.952 44.8787L202.654 45.9317L208.449 42.0683ZM213.39 36.9524H220.878V29.9876H213.39V36.9524ZM224.211 32.4588L220.779 21.1488L214.114 23.1712L217.546 34.4812L224.211 32.4588ZM217.446 18.6776H216.822V25.6424H217.446V18.6776ZM213.49 21.1488L210.058 32.4588L216.723 34.4812L220.155 23.1712L213.49 21.1488ZM235.66 44H232.177V47.4824H235.66V44ZM235.66 17.09V13.6076H232.177V17.09H235.66ZM251.689 34.172L250.588 30.8683L246.751 32.1473L248.585 35.7517L251.689 34.172ZM256.096 42.83L259.126 44.5469L260.048 42.9184L259.199 41.2503L256.096 42.83ZM255.433 44V47.4824H257.462L258.463 45.7169L255.433 44ZM250.597 44L247.493 45.578L248.461 47.4824H250.597V44ZM245.839 34.64L248.943 33.062L247.975 31.1576H245.839V34.64ZM241.276 34.64V31.1576H237.793V34.64H241.276ZM241.276 44V47.4824H244.758V44H241.276ZM241.276 29.57H237.793V33.0524H241.276V29.57ZM241.276 22.16V18.6776H237.793V22.16H241.276ZM239.142 44V17.09H232.177V44H239.142ZM235.66 20.5724H248.764V13.6076H235.66V20.5724ZM248.764 20.5724C250.411 20.5724 251.007 20.9818 251.215 21.1904C251.424 21.399 251.833 21.9948 251.833 23.642H258.798C258.798 20.9212 258.116 18.241 256.14 16.2656C254.165 14.2902 251.485 13.6076 248.764 13.6076V20.5724ZM251.833 23.642V28.088H258.798V23.642H251.833ZM251.833 28.088C251.833 29.3118 251.602 29.9546 251.418 30.2633C251.276 30.5011 251.073 30.7066 250.588 30.8683L252.79 37.4757C254.723 36.8314 256.333 35.6199 257.4 33.8297C258.425 32.1104 258.798 30.1142 258.798 28.088H251.833ZM248.585 35.7517L252.992 44.4097L259.199 41.2503L254.792 32.5923L248.585 35.7517ZM253.066 41.1131L252.403 42.2831L258.463 45.7169L259.126 44.5469L253.066 41.1131ZM255.433 40.5176H250.597V47.4824H255.433V40.5176ZM253.701 42.422L248.943 33.062L242.735 36.218L247.493 45.578L253.701 42.422ZM245.839 31.1576H241.276V38.1224H245.839V31.1576ZM237.793 34.64V44H244.758V34.64H237.793ZM241.276 40.5176H235.66V47.4824H241.276V40.5176ZM241.276 33.0524H248.53V26.0876H241.276V33.0524ZM248.53 33.0524C249.457 33.0524 250.791 32.8183 251.87 31.7399C252.948 30.6615 253.182 29.3268 253.182 28.4H246.217C246.217 28.2532 246.257 27.5035 246.945 26.8151C247.633 26.1267 248.383 26.0876 248.53 26.0876V33.0524ZM253.182 28.4V23.33H246.217V28.4H253.182ZM253.182 23.33C253.182 22.4032 252.948 21.0685 251.87 19.9901C250.791 18.9117 249.457 18.6776 248.53 18.6776V25.6424C248.383 25.6424 247.633 25.6033 246.945 24.9149C246.257 24.2265 246.217 23.4768 246.217 23.33H253.182ZM248.53 18.6776H241.276V25.6424H248.53V18.6776ZM237.793 22.16V29.57H244.758V22.16H237.793Z" fill="white" mask="url(#path-2-inside-1_992_6378)"/>
<defs>
<linearGradient id="paint0_linear_992_6378" x1="0" y1="30" x2="355" y2="30" gradientUnits="userSpaceOnUse">
<stop stop-color="#DE32C8"/>
<stop offset="1" stop-color="#3285E3"/>
</linearGradient>
</defs>
</svg>
