<svg width="416" height="374" viewBox="0 0 416 374" fill="none" xmlns="http://www.w3.org/2000/svg">
<path d="M313.899 178.01C314.639 180.926 317.041 176.096 317.11 174.987C316.182 172.435 313.714 176.693 313.899 178.01Z" fill="#ECF7FF"/>
<path d="M304.147 205.085C304.283 207.717 308.346 211.285 309.932 208.142C310.624 206.144 310.163 203.988 310.332 201.894C311.499 186.956 316.631 180.889 311.272 181.997C305.255 185.766 304.017 198.217 304.147 205.085Z" fill="#ECF7FF"/>
<path d="M153.776 281.414C155.755 282.325 157.997 282.542 160.061 281.933C165.428 280.344 168.572 283.203 168.123 279.022C167.834 276.386 169.851 273.541 177.744 272.305C193.612 269.822 201.135 258.508 212.308 246.803C219.104 239.955 224.974 231.704 233.758 227.439C237.009 225.826 240.616 224.591 243.611 222.738C250.84 219.95 266.258 217.948 254.432 229.273C254.514 229.402 254.496 229.373 254.577 229.502C262.834 225.739 270.732 220.806 277.626 214.786C280.633 211.684 274.861 206.97 275.007 203.16C274.496 197.219 277.919 192.001 280.912 187.293C292.181 168.814 312.971 157.805 321.306 137.418C321.306 137.418 315.506 147.927 298.326 154.805C295.727 155.846 293.714 144.221 292.145 142.233C281.971 123.881 253.694 129.549 243.587 145.171C236.359 155.628 234.852 169.029 235.435 181.672C230.484 174.974 222.137 181.958 218.117 186.339C208.228 197.901 205.636 214.663 208.801 229.637C203.934 228.234 198.816 229.873 194.065 231.093C182.389 233.803 189.737 243.28 194.701 249.195C195.768 250.833 198.804 252.872 196.782 254.839C193.555 258.141 189.39 260.206 185.352 262.247C181.438 264.343 184.542 268.069 176.421 271.523C176.414 271.518 144.349 277.065 153.776 281.414Z" fill="#ECF7FF"/>
<path d="M296.201 142.415C299.004 139.694 295.625 135.324 293.129 137.251C291.521 138.488 293.534 144.565 296.201 142.415Z" fill="#ECF7FF"/>
<path d="M186.85 251.822C187.431 251.828 188.014 251.715 188.527 251.432C189.074 251.129 189.507 250.698 188.957 250.134C186.507 247.371 186.08 243.469 184.715 240.122C181.399 233.502 172.328 251.648 186.85 251.822Z" fill="#ECF7FF"/>
<path d="M68.0994 336.352C63.7036 336.769 39.8154 341.563 53.2975 347.025C56.6749 346.005 60.82 346.412 63.7027 344.365C65.842 342.907 67.946 341.398 69.7626 339.51C72.3967 336.96 71.4202 335.757 68.0994 336.352Z" fill="#ECF7FF"/>
<path d="M447.317 107.195L425.184 16.5823L395.61 12.6736L332.234 35.4919C332.234 35.4919 329.346 44.9193 336.564 46.6427C343.781 48.3662 350.071 46.1988 336.267 49.6412C332.362 50.5076 328.202 50.9373 324.261 51.8171C320.75 52.6008 317.8 55.1142 316.531 58.596C312.885 68.6032 331.963 61.1018 337.51 56.0711C337.51 56.0711 348.693 52.6098 338.155 59.2157C338.153 59.203 338.152 59.1967 338.149 59.184C337.689 59.4765 337.234 59.7679 336.774 60.0604C336.254 60.371 335.789 60.671 335.366 60.9627C325.375 67.3645 315.35 74.0485 307.34 83.0019C295.27 96.0683 316.051 102.957 325.859 105.492C326.984 105.997 339.251 108.012 334.236 109.657C325.18 109.517 304.017 119.994 317.645 129.867C323.155 133.095 330.373 134.425 335.988 131.088C336.606 130.601 336.61 130.128 335.836 129.713C339.188 127.483 342.121 124.881 344.17 121.327C345.545 119.078 342.89 119.106 341.35 119.003C343.5 116.296 346.062 114.252 348.19 111.595C362.133 96.8996 383.543 87.6345 380.078 87.5164C376.613 87.3983 361.867 91.2853 358.236 95.007C354.606 98.7286 350.783 103.741 347.431 108.676C344.837 112.447 342.763 116.655 338.216 118.184C335.06 110.66 339.815 105.415 345.197 101.164C345.533 100.882 345.759 100.616 345.868 100.299C345.957 100.269 346.035 100.247 346.124 100.217C375.583 89.8359 363.456 71.3554 381.444 70.6428C399.432 69.9302 408.166 72.91 408.166 72.91C381.933 85.3393 403.567 112.887 403.567 112.887C403.567 112.887 381.317 98.1026 351.965 131.191C335.862 148.378 304.242 185.713 320.85 210.516C321.644 211.688 319.919 212.711 319.652 213.839C315.308 222.747 313.087 233.208 316.372 242.965C268.943 225.445 212.301 247.034 209.586 304.425C202.7 302.624 196.207 303.052 190.193 306.932C185.715 299.486 178.261 291.322 169.152 294.882C161.684 297.507 156.719 305.254 156.411 313.317C141.852 312.428 129.161 316.863 118.401 327.051C114.245 319.05 103.264 327.77 97.9016 330.198C90.6338 334.544 83.0507 338.465 75.7633 342.677C175.599 323.382 275.435 304.087 375.277 284.79L376.93 291.647L483.912 279.676L447.317 107.195Z" fill="#ECF7FF"/>
<path opacity="0.71" d="M335.992 131.094C336.61 130.607 336.613 130.133 335.84 129.718C339.191 127.488 342.124 124.886 344.174 121.332C345.549 119.084 342.893 119.111 341.354 119.008C343.504 116.302 346.066 114.257 348.194 111.601C362.137 96.9053 383.547 87.6402 380.082 87.522C376.616 87.4039 361.871 91.291 358.24 95.0126C354.609 98.7342 350.787 103.747 347.434 108.682C344.841 112.452 342.766 116.661 338.22 118.19C335.879 112.602 337.899 108.273 341.294 104.669C341.588 104.363 341.883 104.063 342.186 103.774C342.208 103.757 342.229 103.733 342.245 103.717C342.532 103.445 342.82 103.173 343.121 102.904C343.159 102.871 343.191 102.838 343.229 102.811C343.515 102.559 343.802 102.313 344.089 102.074C344.138 102.032 344.187 101.989 344.241 101.946C344.263 101.929 344.29 101.904 344.312 101.886C344.606 101.646 344.9 101.405 345.201 101.17C345.217 101.154 345.232 101.137 345.249 101.128C345.315 101.075 345.379 101.017 345.432 100.961C345.648 100.742 345.791 100.537 345.872 100.305C345.961 100.274 346.039 100.253 346.127 100.223C346.641 100.044 347.135 99.8571 347.622 99.671C347.78 99.6077 347.933 99.5519 348.091 99.4885C348.419 99.3594 348.741 99.2315 349.057 99.1048C349.232 99.0316 349.401 98.9596 349.571 98.8939C349.863 98.7719 350.153 98.6435 350.439 98.5227C350.602 98.4518 350.771 98.3798 350.926 98.3038C351.221 98.1679 351.505 98.0344 351.788 97.9009C351.92 97.8359 352.06 97.7761 352.192 97.7111C352.596 97.515 352.992 97.3137 353.382 97.1136C353.422 97.0927 353.456 97.073 353.496 97.0521C353.839 96.8677 354.181 96.6833 354.512 96.5013C354.643 96.43 354.767 96.3535 354.892 96.2834C355.124 96.1466 355.357 96.0162 355.582 95.8743C355.717 95.7891 355.853 95.7103 355.988 95.6251C356.196 95.4931 356.399 95.3685 356.6 95.2376C356.729 95.1537 356.864 95.0685 356.993 94.9845C357.199 94.8462 357.4 94.7089 357.594 94.5729C357.705 94.4924 357.816 94.4183 357.928 94.3442C358.216 94.1376 358.504 93.9309 358.779 93.7203C358.85 93.6671 358.921 93.6075 358.992 93.5543C359.2 93.3894 359.409 93.2308 359.611 93.0671C359.725 92.9729 359.833 92.8797 359.942 92.793C360.094 92.6651 360.246 92.5373 360.392 92.4107C360.505 92.3101 360.617 92.2095 360.73 92.1089C360.864 91.9846 360.999 91.8666 361.126 91.7435C361.233 91.644 361.345 91.5371 361.452 91.4377C361.579 91.3145 361.701 91.1926 361.828 91.0695C361.929 90.9712 362.029 90.8666 362.129 90.7684C362.276 90.6152 362.417 90.4633 362.564 90.3102C362.716 90.1495 362.862 89.9901 363 89.8254C363.098 89.7145 363.202 89.5961 363.3 89.4852C363.403 89.3668 363.499 89.2432 363.602 89.1248C363.684 89.0237 363.771 88.9215 363.846 88.8216C363.948 88.6968 364.044 88.5732 364.14 88.4497C364.21 88.3573 364.287 88.2637 364.356 88.165C364.457 88.0339 364.552 87.904 364.646 87.7741C364.706 87.6904 364.76 87.6142 364.82 87.5305C365.197 87.0046 365.543 86.4781 365.866 85.9628C365.881 85.9403 365.89 85.9253 365.905 85.9028C366.01 85.7314 366.116 85.56 366.216 85.3897C366.24 85.3522 366.258 85.3159 366.282 85.2784C366.387 85.1006 366.486 84.9304 366.584 84.7539C366.599 84.7313 366.614 84.7088 366.622 84.6875C369.313 79.9198 370.392 75.5556 373.744 72.9974C373.887 72.891 374.02 72.7932 374.159 72.7005C374.17 72.6918 374.176 72.6907 374.187 72.682C374.321 72.5905 374.456 72.5053 374.597 72.419C374.614 72.4092 374.625 72.4005 374.642 72.3906C374.778 72.3118 374.92 72.2318 375.062 72.1518C375.085 72.1408 375.108 72.1298 375.125 72.1199C375.262 72.0475 375.406 71.9738 375.55 71.9064C375.58 71.8942 375.609 71.882 375.644 71.8687C375.783 71.8025 375.928 71.7415 376.075 71.6868C376.117 71.6723 376.152 71.6589 376.193 71.6443C376.334 71.5908 376.475 71.5373 376.622 71.4827C376.67 71.4669 376.723 71.45 376.771 71.4343C376.913 71.3871 377.055 71.3399 377.198 71.2991C377.258 71.281 377.325 71.2681 377.384 71.25C377.528 71.2092 377.666 71.1758 377.811 71.1413C377.883 71.1209 377.962 71.1056 378.041 71.0904C378.179 71.057 378.319 71.03 378.465 71.0018C378.556 70.9842 378.654 70.9717 378.752 70.9529C378.885 70.9271 379.014 70.9087 379.154 70.8817C379.271 70.8657 379.394 70.8486 379.51 70.8326C379.633 70.8154 379.756 70.7983 379.88 70.7874C380.028 70.7719 380.184 70.7615 380.338 70.7448C380.444 70.7375 380.542 70.725 380.648 70.7177C380.909 70.7 381.183 70.68 381.459 70.6726C382.129 70.6482 382.786 70.6261 383.432 70.6064C383.47 70.6057 383.514 70.6038 383.551 70.6031C384.286 70.5859 385.002 70.5722 385.707 70.5672C385.794 70.5635 385.883 70.566 385.971 70.5622C385.983 70.5599 385.99 70.565 386.002 70.5627C387.349 70.5518 388.626 70.5677 389.848 70.5941C389.899 70.5974 389.943 70.5955 389.994 70.5987C390.019 70.6004 390.039 70.6032 390.063 70.5985C390.475 70.6107 390.88 70.6178 391.274 70.6336C391.343 70.6333 391.414 70.6394 391.477 70.6403C391.528 70.6436 391.579 70.6468 391.629 70.6438C392.829 70.6876 393.957 70.7518 395.025 70.8278C395.07 70.8322 395.114 70.8303 395.152 70.8359C395.172 70.8387 395.184 70.8364 395.197 70.8404C395.549 70.8644 395.895 70.8959 396.235 70.9222C396.247 70.9199 396.26 70.9238 396.266 70.9227C396.28 70.9266 396.292 70.9243 396.305 70.9283C396.901 70.9773 397.472 71.0309 398.02 71.0893C398.052 71.0961 398.065 71.0938 398.084 71.0966C398.438 71.1332 398.786 71.171 399.121 71.2112C399.173 71.2208 399.205 71.2213 399.237 71.2217C401.85 71.5308 403.887 71.8921 405.347 72.2072C406.768 72.5104 407.643 72.7679 407.991 72.8714C408.058 72.8913 408.092 72.9044 408.119 72.9124C408.159 72.9243 408.172 72.9283 408.172 72.9283C416.476 67.0298 430.898 62.969 437.569 67.2468L435.361 58.2003C428.536 57.5958 419.869 56.8549 415.44 56.608C407.467 56.1662 398.623 62.0771 401.187 62.1002C403.751 62.1232 408.912 62.209 411.861 63.4051C414.809 64.6013 401.102 63.062 390.059 65.9447C379.016 68.8274 373.796 70.8865 368.754 77.6121C363.712 84.3439 345.631 73.7761 357.77 68.6007C360.684 66.4553 371.66 63.0932 384.398 62.0033C384.423 61.9986 384.442 62.0014 384.442 62.0014C384.442 62.0014 383.227 60.7722 383.366 58.3558C383.334 58.2241 383.352 58.0565 383.411 57.8415C383.418 57.781 383.444 57.717 383.474 57.6455C385.049 53.4613 401.037 36.7291 425.744 18.8175L425.68 18.5477C421.124 20.7477 408.084 27.0625 398.669 31.7181C387.092 37.4482 367.965 45.2152 361.635 46.4253C356.911 47.3253 348.036 47.3993 341.659 48.3298C341.345 48.4035 341.002 48.4895 340.634 48.5738C340.598 48.5808 340.556 48.5954 340.52 48.6024C340.291 48.6597 340.043 48.7142 339.791 48.7762C339.64 48.8119 339.483 48.8487 339.328 48.8919C339.225 48.9182 339.117 48.9457 339.014 48.9657C338.845 49.0049 338.677 49.0504 338.496 49.092C338.388 49.1195 338.28 49.147 338.172 49.1744C337.968 49.227 337.756 49.2745 337.54 49.3294C337.45 49.3533 337.359 49.371 337.263 49.3961C336.944 49.4773 336.618 49.5534 336.276 49.6394C336.263 49.6417 336.251 49.6441 336.239 49.6464C332.956 50.3728 329.936 52.0332 327.627 54.5407C323.883 58.6192 321.895 63.0145 324.104 62.8305C326.955 62.0563 330.113 60.7172 332.788 59.255C332.811 59.2439 332.828 59.2341 332.851 59.2231C332.874 59.212 332.897 59.201 332.913 59.1848C333.146 59.0544 333.379 58.924 333.607 58.7947C333.652 58.7663 333.698 58.7443 333.737 58.7171C333.777 58.6962 333.816 58.669 333.861 58.6406C334.042 58.5334 334.217 58.4274 334.391 58.3213C334.464 58.2744 334.515 58.2449 334.566 58.2153C334.628 58.1771 334.678 58.1412 334.729 58.1116C334.892 58.008 335.055 57.9043 335.218 57.8006C335.25 57.7746 335.291 57.7537 335.323 57.7277C335.345 57.7103 335.368 57.6993 335.384 57.6831C335.423 57.6559 335.462 57.6287 335.501 57.6015C335.668 57.4903 335.829 57.374 335.984 57.2651C336.012 57.2466 336.04 57.2281 336.062 57.2107C336.095 57.1847 336.134 57.1575 336.166 57.1314C336.355 56.9966 336.536 56.8566 336.711 56.7177C336.721 56.709 336.738 56.6992 336.749 56.6905C336.765 56.6743 336.782 56.6645 336.798 56.6483C337.049 56.4487 337.295 56.2503 337.502 56.0526C337.538 56.0392 337.556 56.0357 337.58 56.031C337.592 56.0286 337.599 56.0275 337.611 56.0251C337.635 56.0204 337.664 56.0082 337.701 56.0011C337.791 55.9772 337.897 55.9434 338.023 55.9061C338.088 55.8869 338.154 55.8676 338.226 55.8472C338.381 55.804 338.543 55.7596 338.711 55.7141C339.064 55.6194 339.462 55.5229 339.866 55.4316C341.59 55.0525 343.438 54.8595 342.332 56.1171C342.265 56.1957 342.191 56.2691 342.107 56.3575C341.932 56.5292 341.722 56.7142 341.455 56.93C367.509 44.6205 385.64 38.2212 390.023 37.0525C390.035 37.0501 390.053 37.0466 390.064 37.0379C390.082 37.0344 390.107 37.0297 390.124 37.0199C400.535 34.2593 409.082 32.4236 397.359 39.5867C385.607 46.762 384.731 59.5822 375.454 61.8479C366.176 64.1136 354.083 62.7679 340.85 73.2099C340.633 73.3898 340.41 73.5772 340.188 73.7646C322.976 87.8512 324.034 98.9713 327.241 94.0054C330.45 89.0457 336.142 84.7353 337.184 107.938C338.223 131.122 310.303 124.287 318.503 130.344C323.902 133.227 330.664 134.257 335.992 131.094ZM155.659 282.042C156.095 282.115 156.532 282.188 156.965 282.242C158.008 282.323 159.055 282.226 160.062 281.926C165.429 280.337 168.573 283.196 168.124 279.015C167.835 276.38 169.852 273.535 177.745 272.298C193.613 269.815 201.136 258.501 212.308 246.796C219.105 239.948 224.975 231.697 233.759 227.433C237.009 225.82 240.616 224.584 243.612 222.732C250.841 219.943 266.259 217.941 254.433 229.267C254.515 229.395 254.497 229.366 254.578 229.495C262.835 225.733 270.733 220.799 277.627 214.779C280.633 211.677 274.862 206.963 275.008 203.153C274.497 197.212 277.92 191.994 280.913 187.287C292.114 168.913 312.73 157.917 321.157 137.749C317.909 144.915 301.246 162.336 295.749 155.783C290.162 149.122 278.272 135.947 264.545 170.873C250.812 205.801 257.938 200.458 251.975 199.615C246.01 198.766 235.464 199.524 225.407 206.562C215.35 213.6 209.952 230.688 214.215 231.184C218.478 231.679 221.696 232.377 222.712 232.936C223.727 233.494 216.633 233.355 206.188 238.42C195.749 243.484 201.511 247.983 202.215 251.622C202.918 255.261 199.573 262.322 189.617 267.082C180.389 271.492 150.594 279.062 154.098 281.536C154.593 281.749 155.125 281.922 155.659 282.042ZM151.363 325.479C138.542 327.55 122.065 320.683 107.352 336.578C139.405 330.383 171.464 324.187 203.517 317.992C198.575 316.072 192.025 314.147 183.385 313.94C153.228 313.21 164.805 323.301 151.363 325.479ZM442.641 102.689L451.725 164.207C443.936 155.484 428.002 161.702 407.341 183.092C388.823 202.269 384.752 233.525 394.916 242.307C408.337 253.913 449.172 223.287 456.001 193.147L467.311 269.708L375.911 287.373L375.284 284.782C374.64 284.907 373.996 285.031 373.351 285.156C372.61 285.299 371.862 285.444 371.121 285.587C319.936 295.479 268.745 305.373 217.56 315.265C217.72 312.832 217.731 309.626 217.637 305.455C216.976 274.603 287.048 280.552 319.709 285.728C352.371 290.904 370.701 280.968 359.465 279.298C342.154 276.729 337.987 259.244 365.616 237.63C367.955 235.799 369.938 233.991 371.612 232.217C371.636 232.337 371.66 232.464 371.683 232.584C373.489 231.001 374.98 229.288 376.171 227.522C385.141 216.715 387.383 208.515 372.957 207.01C371.207 206.501 369.122 206.379 366.712 206.766C364.091 207.358 361.382 208.906 358.954 211.607C345.865 226.184 358.869 232.271 353.771 229.087C348.673 225.903 332.585 214.425 360.656 175.492C376.619 151.649 431.394 138.705 431.394 138.705C431.394 138.705 431.306 76.9852 420.356 76.272C422.863 73.3256 426.803 71.2379 432.928 70.6976C435.054 70.5099 436.88 70.5968 438.457 70.896L444.789 96.8055C443.693 100.3 442.641 102.689 442.641 102.689ZM375.526 249.173C375.526 249.173 346.432 248.428 350.397 264.737C350.663 265.821 356.395 260.965 362.799 256.162C369.203 251.36 375.526 249.173 375.526 249.173ZM458.494 234.884C458.494 234.884 448.062 188.411 431.788 247.543C431.082 250.121 449.296 234.167 458.494 234.884ZM399.992 264.166C400.924 266.185 425.434 237.302 425.434 237.302C425.434 237.302 395.016 253.428 399.992 264.166ZM418.331 148.032C404.698 158.131 399.384 172.846 399.384 172.846C406.806 170.932 426.129 164.178 435.044 149.239C443.948 134.31 431.965 137.939 418.331 148.032ZM456.974 185.297C457.117 175.205 455.259 168.172 451.725 164.207L456.001 193.147C456.597 190.523 456.94 187.897 456.974 185.297Z" fill="url(#paint0_linear_495_22272)"/>
<path opacity="0.35" d="M444.784 96.8262C443.69 100.3 442.639 102.69 442.639 102.69L467.31 269.715L375.91 287.379L375.283 284.789C374.639 284.914 373.995 285.038 373.35 285.163L95.9472 338.776C97.9244 337.002 99.9001 334.992 101.786 332.71C112.582 319.647 118.406 327.043 118.406 327.043C134.25 318.762 133.762 325.697 143.192 324.708C152.614 323.714 148.999 313.357 152.701 313.2C153.924 313.2 155.159 313.23 156.41 313.31C156.488 311.299 156.854 309.312 157.472 307.42C157.412 308.285 157.085 310.377 156.427 314.443C153.822 330.518 161.043 315.816 170.782 302.891C174.651 297.758 178.318 296.281 181.416 296.785C184.976 299.314 187.954 303.209 190.186 306.927C191.351 313.641 188.862 304.839 196.039 310.463C203.216 316.088 209.805 319.127 210.267 310.261C210.728 301.394 217.259 280.319 230.854 278.926C244.449 277.539 286.162 282.049 301.418 280.184C316.675 278.325 315.234 271.001 291.308 256.843C270.08 244.277 263.586 238.468 283.925 238.05C289.558 237.933 295.197 238.274 300.784 239.131C306.04 239.933 311.295 241.091 316.365 242.96C323.294 255.224 336.805 259.762 342.141 258.73C347.477 257.699 325.25 239.346 318.911 231.892C316.127 228.616 316.161 224.092 317.076 220.049C317.799 217.92 318.665 215.842 319.64 213.842C319.868 212.872 321.172 211.983 321.033 211.005C327.681 228.47 351.719 241.576 363.801 237.186C366.563 236.18 368.539 235.148 369.948 234.121C370.502 233.627 371.071 233.116 371.67 232.593C384.209 221.629 381.81 204.354 366.707 206.78C359.138 208.197 353.525 219.215 354.838 224.574C356.556 231.602 368.547 235.192 356.033 230.757C343.52 226.328 336.886 209.583 331.598 196.221C319.601 165.918 360.476 118.858 354.182 135.581C342.121 167.612 344.918 182.736 353.108 176.964C390.385 150.695 403.56 112.882 403.56 112.882C403.56 112.882 413.327 115.596 416.202 107.963C419.077 100.331 408.159 72.9047 432.928 70.7108C435.054 70.5231 436.881 70.61 438.458 70.9091L444.784 96.8262ZM152.449 280.548C152.732 280.841 153.165 281.125 153.782 281.413C155.761 282.324 158.004 282.541 160.067 281.932C165.434 280.343 168.578 283.202 168.129 279.021C167.841 276.385 169.857 273.54 177.751 272.304C193.618 269.821 201.141 258.507 212.314 246.802C219.11 239.954 224.98 231.703 233.764 227.438C237.015 225.825 240.622 224.59 243.618 222.737C250.846 219.949 266.264 217.947 254.438 229.273C254.52 229.401 254.502 229.372 254.583 229.501C262.84 225.738 270.738 220.805 277.632 214.785C280.639 211.683 274.867 206.969 275.013 203.159C274.502 197.218 277.925 192 280.918 187.292C292.188 168.813 312.977 157.804 321.312 137.417C321.312 137.417 320.288 139.263 317.843 141.915C317.843 141.915 308.083 154.633 302.404 156.433C297.93 157.849 296.272 155.367 294.449 150.861C292.912 147.967 291.491 144.395 290.647 143.324C289.409 141.095 287.927 139.201 286.255 137.627C285.319 136.896 284.258 136.07 283.061 135.126C280.829 133.693 278.384 132.689 275.823 132.094C266.372 132.647 265.423 156.083 263.448 169.871C261.056 186.562 249.54 202.003 242.295 195.473C235.058 188.954 237.103 182.243 233.384 179.738C233.248 179.653 233.107 179.575 232.968 179.51C230.166 178.319 236.205 190.616 238.904 192.445C241.72 194.356 230.596 187.919 225.744 189.986C220.886 192.054 214.383 203.88 213.14 219.502C211.898 235.124 210.153 235.461 208.813 229.635C207.464 229.245 206.099 229.096 204.725 229.099C202.037 229.546 198.085 230.822 204.951 231.963C211.836 233.108 209.386 235.209 199.77 238.203C190.154 241.198 193.603 242.862 198.691 247.754C203.784 252.645 199.861 252.767 195.725 255.864C195.294 256.243 194.87 256.594 194.438 256.933C193.104 258.32 197.139 256.753 199.345 257.469C201.954 258.31 195.536 264.087 189.589 264.665C183.641 265.237 183.666 266.375 183.865 267.045C184.064 267.716 182.141 270.424 173.144 273.03C164.127 275.633 151.214 277.944 152.449 280.548ZM315.044 127.527C310.402 121.715 321.735 130.704 329.1 122.815C336.46 114.932 318.252 114.374 326.808 111.053C329.538 110.138 332.193 109.625 334.23 109.658C334.621 109.53 334.892 109.399 335.088 109.269C337.386 109.153 337.629 109.402 334.615 107.995C334.447 107.909 334.266 107.82 334.06 107.735C327.888 104.831 325.669 102.713 331.692 99.6578C337.716 96.6094 334.279 90.7285 332.369 90.2769C329.946 89.708 326.503 94.798 326.74 95.9866C326.89 96.7322 331.149 94.9243 331.914 94.7044C333.89 94.132 329.874 98.2104 326.136 99.0312C322.398 99.8457 317.329 100.825 322.689 92.9028C328.042 84.9814 333.232 80.3873 332.855 76.1207C332.494 71.9692 325.376 68.2832 338.246 59.6838C348.188 52.8649 362.217 63.5724 375.391 58.5645C388.558 53.5579 393.894 36.1534 390.513 36.9251C387.125 37.6979 368.587 44.1102 341.464 56.9218C345.692 53.5181 337.512 56.0508 337.512 56.0508C337.34 56.2023 337.157 56.3624 336.96 56.5186C336.916 56.5534 336.867 56.5956 336.818 56.6315C336.621 56.7877 336.412 56.9462 336.197 57.1059C336.18 57.1158 336.164 57.132 336.147 57.1418C335.937 57.294 335.721 57.4474 335.497 57.5957C335.441 57.6327 335.385 57.6698 335.33 57.7068C335.089 57.8649 334.838 58.0317 334.579 58.1934C334.545 58.2131 334.511 58.2327 334.477 58.2525C334.24 58.3967 333.991 58.5433 333.742 58.6899C333.68 58.7282 333.623 58.7589 333.561 58.7971C333.282 58.956 332.998 59.1159 332.708 59.2771C332.668 59.298 332.622 59.32 332.577 59.3484C332.314 59.491 332.04 59.636 331.77 59.7735C331.713 59.8042 331.656 59.835 331.597 59.8594C331.293 60.0166 330.982 60.1686 330.664 60.3155C330.618 60.3375 330.566 60.3607 330.513 60.384C330.224 60.5186 329.935 60.6533 329.644 60.7817C329.598 60.8037 329.546 60.8269 329.5 60.849C329.174 60.9907 328.849 61.1324 328.516 61.269C328.463 61.2922 328.416 61.308 328.364 61.3312C328.23 61.3898 328.089 61.4433 327.955 61.502C325.935 62.2996 323.907 62.9343 322.105 63.263C311.539 64.1823 322.694 57.4048 326.61 54.5733C330.526 51.7419 326.449 52.3395 331.968 50.426C331.98 50.4236 331.986 50.4225 331.997 50.4138C332.682 50.3012 333.359 50.1835 334.041 50.0583C334.789 49.9201 335.531 49.7768 336.262 49.6157C342.193 48.1348 344.414 47.6923 344.446 47.5286C356.301 44.2133 368.79 44.9311 377.586 39.7516C386.383 34.5721 398.505 22.0403 395.623 23.3064C392.74 24.5725 359.652 33.206 348.474 39.9883C337.301 46.7693 335.754 46.5955 333.249 44.6901C330.415 41.3776 332.222 35.4613 332.222 35.4613L395.598 12.643L425.172 16.5517L425.715 18.7772C397.923 38.9264 381.164 57.5799 383.536 58.5658C386.058 59.6082 418.414 60.9177 432.096 44.9071L437.539 67.2002C430.868 62.9224 416.446 66.9833 408.142 72.8817C408.142 72.8817 407.204 72.564 405.316 72.1543C405.092 72.1057 404.849 72.0542 404.593 72.0051C404.561 71.9983 404.528 71.9915 404.501 71.9835C403.996 71.8841 403.427 71.7775 402.816 71.679C402.738 71.6678 402.66 71.6566 402.587 71.6379C402.333 71.5951 402.073 71.5535 401.806 71.513C401.741 71.4995 401.676 71.4922 401.604 71.4798C401.293 71.4349 400.962 71.3873 400.626 71.3408C400.515 71.3227 400.393 71.3134 400.283 71.2954C400.031 71.2653 399.772 71.23 399.507 71.1959C399.378 71.1814 399.255 71.1658 399.12 71.1524C398.765 71.1095 398.392 71.07 398.012 71.0317C397.877 71.0184 397.736 71.0063 397.601 70.993C397.325 70.9675 397.042 70.9369 396.754 70.9139C396.587 70.9001 396.421 70.8863 396.247 70.8674C395.882 70.8394 395.51 70.8063 395.127 70.7819C394.961 70.7681 394.788 70.7555 394.616 70.7493C394.271 70.7241 393.927 70.7052 393.57 70.6824C393.379 70.6733 393.181 70.6591 392.984 70.6512C392.639 70.6324 392.289 70.6147 391.928 70.6057C391.769 70.5971 391.611 70.5949 391.452 70.5862C390.969 70.5679 390.468 70.5531 389.961 70.5395C389.758 70.5328 389.556 70.5324 389.353 70.5257C388.974 70.5202 388.594 70.5148 388.203 70.5116C388.007 70.5101 387.818 70.5074 387.616 70.507C387.066 70.5016 386.512 70.5037 385.939 70.5093C385.751 70.5129 385.555 70.5113 385.367 70.5149C384.102 70.5295 382.796 70.5587 381.426 70.6134C377.034 70.7861 374.436 72.0235 372.594 73.942C372.547 73.9905 372.5 74.0454 372.447 74.0951C372.301 74.2546 372.162 74.4128 372.023 74.5774C371.972 74.6398 371.921 74.7022 371.87 74.7646C371.738 74.928 371.613 75.0966 371.489 75.2716C371.43 75.3553 371.37 75.439 371.312 75.529C371.199 75.6953 371.086 75.8615 370.98 76.0329C370.917 76.1304 370.855 76.2343 370.792 76.3318C370.698 76.4946 370.603 76.6573 370.508 76.82C370.447 76.9239 370.392 77.0329 370.33 77.1368C370.251 77.2833 370.172 77.4299 370.095 77.5827C369.984 77.7944 369.874 78.0062 369.77 78.2167C369.755 78.2392 369.748 78.2669 369.733 78.2894C366.502 84.7633 363.823 93.9337 346.111 100.18C346.022 100.21 345.944 100.232 345.855 100.262C345.768 100.496 345.625 100.701 345.424 100.903C345.356 100.976 345.286 101.035 345.216 101.095C345.205 101.103 345.194 101.112 345.184 101.127C344.889 101.361 344.589 101.603 344.295 101.844C339.298 105.967 335.222 111.042 338.203 118.147C342.75 116.618 344.824 112.41 347.418 108.639C350.77 103.704 354.593 98.6916 358.223 94.97C361.854 91.2484 376.6 87.3613 380.065 87.4794C383.53 87.5976 362.12 96.8627 348.177 111.558C346.049 114.215 343.481 116.26 341.337 118.966C342.877 119.069 345.532 119.041 344.157 121.29C342.108 124.844 339.17 127.453 335.823 129.676C336.596 130.091 336.588 130.571 335.975 131.051C330.366 134.387 323.144 133.065 317.632 129.83C316.57 129.096 315.712 128.31 315.044 127.527ZM358.31 69.9406C364.445 73.2389 400.568 62.3316 398.611 62.0598C397.551 61.8249 395.935 61.6842 393.659 61.6514C377.304 61.4182 361.357 65.938 357.753 68.5909C357.482 68.7877 357.688 69.2993 358.31 69.9406ZM354.202 272.497C382.205 296.595 382.745 256.201 381.424 255.104C380.684 254.341 378.853 250.02 377.401 249.329C366.987 244.344 351.999 253.464 350.445 257.789C350.337 258.112 346.586 265.94 354.202 272.497ZM402.764 302.37C442.113 316.666 540.059 220.591 480.601 159.821C476.282 159.166 477.407 148.641 448.27 157.108C389.158 174.297 385.547 223.038 393.286 241.224C402.578 263.075 396.509 299.266 402.764 302.37ZM304.425 206.232C305.385 208.587 308.569 210.841 309.939 208.141C310.63 206.142 310.17 203.986 310.339 201.892C311.007 193.314 312.98 187.667 313.532 184.62C312.9 182.037 303.747 197.113 304.425 206.232ZM420.297 165.069C445.135 154.163 451.491 141.019 463.212 141.32C474.933 141.616 479.67 143.746 479.67 143.746C449.834 128.925 415.74 139.039 402.107 165.584C388.475 192.128 395.459 175.974 420.297 165.069Z" fill="#8DA1E5"/>
<path d="M216.212 280.055C215.374 283.611 247.419 275.061 266.198 268.13C284.976 261.198 284.825 251.971 279.556 250.022C274.287 248.073 269.086 240.865 269.646 239.063C270.204 237.255 223.796 248.016 216.212 280.055Z" fill="white"/>
<path d="M317.678 243.744C322.62 251.343 316.524 228.867 316.088 227.067C315.644 225.262 313.677 237.591 317.678 243.744Z" fill="white"/>
<path d="M361.912 232.076C363.462 232.236 373.674 225.93 371.08 224.646C368.487 223.361 359.611 219.975 355.444 222.192C351.277 224.416 359.693 231.849 361.912 232.076Z" fill="white"/>
<path d="M336.565 228.014C341.846 230.775 326.769 194.063 329.492 174.55C332.215 155.045 338.497 146.675 338.497 146.675C338.497 146.675 318.53 168.883 316.509 189.513C314.489 210.15 329.909 224.534 336.565 228.014Z" fill="white"/>
<path opacity="0.17" d="M353.078 222.124C353.078 222.124 346.334 205.695 352.009 192C357.685 178.305 361.788 174.939 361.788 174.939C361.788 174.939 367.579 193.291 363.577 201.614C359.579 209.93 353.115 216.773 353.078 222.124Z" fill="#8DA1E5"/>
<path opacity="0.17" d="M246.545 200.665C246.545 200.665 265.402 211.004 269.328 210.245C273.26 209.485 275.441 191.706 278.515 183.7C281.589 175.694 305.41 159.201 305.41 159.201C305.41 159.201 281.654 180.467 276.21 195.785C270.767 211.103 269.533 213.659 267.26 215.956C264.987 218.253 257.564 226.266 258.495 224.071C259.433 221.874 260.795 218.617 249.164 220.806C237.533 222.995 248.174 220.839 256.628 215.812C265.082 210.784 264.023 206.255 254.606 207.701C245.197 209.152 246.545 200.665 246.545 200.665Z" fill="#8DA1E5"/>
<path opacity="0.17" d="M261.726 178.219C261.726 178.219 273.604 156.852 279.995 152.407C286.386 147.961 284.531 147.755 284.531 147.755C284.531 147.755 277.883 146.368 271.9 156.125C265.925 165.886 261.726 178.219 261.726 178.219Z" fill="#8DA1E5"/>
<path d="M237.018 185.266C237.334 187.096 262.337 173.946 263.411 154.483C264.493 135.025 264.026 131.925 264.026 131.925C264.026 131.925 229.113 139.145 237.018 185.266Z" fill="white"/>
<path d="M207.875 223.927C207.875 223.927 219.83 191.378 225.657 185.19C231.486 179.009 231.486 179.009 231.486 179.009C231.486 179.009 223.856 177.634 215.548 189.678C207.239 201.716 206.941 219.683 207.875 223.927Z" fill="white"/>
<path d="M189.204 239.602C190.682 241.936 204.818 232.481 204.818 232.481C204.818 232.481 200.187 230.081 196.019 230.926C191.857 231.769 185.491 233.735 189.204 239.602Z" fill="white"/>
<path d="M180.699 249.032C181.58 250.424 185.301 241.203 183.927 239.703C182.545 238.197 176.587 242.533 180.699 249.032Z" fill="white"/>
<path d="M156.611 316.298C156.611 316.298 166.592 312.032 175.132 294.14C175.132 294.14 167.516 292.802 161.498 300.221C155.481 307.647 156.611 316.298 156.611 316.298Z" fill="white"/>
<path d="M125.42 322.326C125.42 322.326 134.56 323.199 140.637 320.423C146.714 317.646 151.526 313.217 151.526 313.217C151.526 313.217 137.259 312.305 125.42 322.326Z" fill="white"/>
<path d="M184.495 233.153C185.958 231.36 186.899 228.723 183.897 230.058C180.89 231.394 184.495 233.153 184.495 233.153Z" fill="white"/>
<path d="M231.548 174.638C234.368 172.3 232.335 165.597 230.888 167.472C229.436 169.354 227.648 177.88 231.548 174.638Z" fill="white"/>
<path d="M231.903 164.728C229.897 165.28 230.445 161.721 232.561 162.198C234.672 162.683 234.231 164.088 231.903 164.728Z" fill="white"/>
<path d="M314.533 124.553C316.546 127.335 324.843 115.07 324.131 113.737C323.418 112.398 309.894 118.136 314.533 124.553Z" fill="#FFFEFA"/>
<path d="M322.054 111.44C324.066 110.336 325.959 108.421 320.948 109.245C315.945 110.074 320.463 112.312 322.054 111.44Z" fill="#FFFEFA"/>
<path d="M326.681 108.636C324.815 108.766 324.883 107.782 326.376 107.775C327.869 107.769 327.82 108.56 326.681 108.636Z" fill="#FFFEFA"/>
<path d="M314.835 100.112C316.483 100.516 320.878 80.3917 324.502 74.8726C328.127 69.3598 334.32 62.9109 332.429 63.4996C330.538 64.0883 321.942 69.3931 311.613 78.8735C301.282 88.3476 299.71 96.3916 314.835 100.112Z" fill="#FFFEFA"/>
<path d="M330.439 94.6745C331.773 94.2065 333.097 89.9657 331.842 90.2543C330.592 90.5417 327.332 94.3886 327.297 95.2817C327.255 96.176 330.439 94.6745 330.439 94.6745Z" fill="#FFFEFA"/>
<path d="M318.19 69.2974C321.232 68.9197 323.274 64.3497 321.325 64.444C319.382 64.5372 315.143 69.6763 318.19 69.2974Z" fill="#FFFEFA"/>
<path d="M316.426 61.2158C316.728 62.3587 323.498 55.956 324.752 53.3108C326.005 50.6593 323.263 51.4125 319.862 53.9408C316.46 56.4692 316.04 59.7411 316.426 61.2158Z" fill="#FFFEFA"/>
<path opacity="0.17" d="M276.51 281.617C291.544 282.486 278.582 282.484 260.876 286.549C243.177 290.613 219.785 309.557 220.379 312.988C220.972 316.418 216.712 314.405 218.011 303.184C219.31 291.963 228.939 286.918 239.692 284.557C250.457 282.188 268.055 281.124 276.51 281.617Z" fill="#8DA1E5"/>
<path opacity="0.17" d="M327.254 94.0155C327.254 94.0155 332.279 86.2497 339.812 83.3757C347.345 80.5017 342.719 98.8063 339.935 100.552C337.151 102.292 337.619 110.618 337.619 110.618C337.619 110.618 338.101 106.782 345.198 101.163C352.295 95.544 345.286 69.1287 340.2 73.7684C335.113 78.4081 341.209 83.0336 335.41 84.9354C329.606 86.8385 327.254 94.0155 327.254 94.0155Z" fill="#8DA1E5"/>
<path opacity="0.17" d="M324.523 128.656C322.973 127.682 333.38 126.662 335.642 124.761C337.903 122.86 338.393 118.379 338.393 118.379C338.393 118.379 341.282 117.44 342.754 115.173C342.754 115.173 341.747 119.097 340.284 119.944C338.815 120.793 336.011 125.726 333.735 126.869C331.467 128.016 326.271 128.699 327.163 129.367C329.373 131.014 333.509 131.016 335.677 129.185C337.428 127.705 338.884 124.41 341.523 122.862C344.163 121.322 344.163 121.321 344.163 121.321C344.163 121.321 340.801 126.796 335.829 129.707C330.863 132.623 324.523 128.656 324.523 128.656Z" fill="#8DA1E5"/>
<path opacity="0.17" d="M225.394 206.564C226.94 205.563 218.95 210.738 217.177 221.269C215.405 231.801 229.123 228.211 230.97 227C232.824 225.795 239.757 223.7 238.444 223.954C237.132 224.208 227.579 229.487 218.296 240.367C209.013 251.247 202.846 253.102 202.646 252.294C202.445 251.486 201.586 249.584 200.489 247.433C199.387 245.282 205.062 252.53 210.253 248.04C215.444 243.551 215.562 239.891 218.125 237.886C220.682 235.882 226.254 232.809 227.452 230.818C228.656 228.826 226.919 231.584 220.097 231.452C213.275 231.319 212.454 231.997 213.039 225.66C213.627 219.31 219.754 210.202 225.394 206.564Z" fill="#8DA1E5"/>
<path opacity="0.17" d="M316.375 242.971C316.375 242.971 324.048 263.751 329.281 266.133C334.514 268.516 349.417 258.467 346.567 259.018C343.716 259.568 327.884 261.873 316.375 242.971Z" fill="#8DA1E5"/>
<path opacity="0.17" d="M346.082 235.175C346.082 235.175 324.861 233.578 319.544 227.627C314.225 221.67 321.276 211.897 321.276 211.897C321.276 211.897 327.864 228.468 346.082 235.175Z" fill="#8DA1E5"/>
<path opacity="0.17" d="M312.82 187.685C312.82 187.685 307.202 194.24 306.282 199.328C305.36 204.41 309.939 208.14 309.939 208.14C309.939 208.14 309.673 199.231 312.82 187.685Z" fill="#8DA1E5"/>
<path d="M312.672 217.84C310.452 218.65 311.607 227.27 313.233 225.636C314.859 224.002 316.394 216.484 312.672 217.84Z" fill="white"/>
<path d="M301.147 236.086C303.587 238.011 305.797 234.341 302.946 234.137C300.099 233.925 300.187 235.327 301.147 236.086Z" fill="white"/>
<path d="M206.738 301.824C208.614 301.317 210.441 294.951 208.854 294.831C207.268 294.711 204.862 302.325 206.738 301.824Z" fill="white"/>
<path d="M190.578 304.028C191.864 303.989 191.701 302.465 190.275 302.458C188.848 302.445 189.292 304.06 190.578 304.028Z" fill="white"/>
<path d="M154.546 311.012C155.842 310.669 154.985 309.076 153.905 309.455C152.824 309.834 153.249 311.348 154.546 311.012Z" fill="white"/>
<path d="M156.235 304.639C156.825 304.531 157.036 303.499 156.038 303.62C155.047 303.746 155.644 304.747 156.235 304.639Z" fill="white"/>
<path d="M309.408 220.789C310.805 220.42 309.885 218.694 308.717 219.11C307.55 219.526 308.016 221.156 309.408 220.789Z" fill="white"/>
<path d="M287.599 128.826C288.127 126.079 284.604 126.215 284.333 128.598C284.064 130.987 287.077 131.573 287.599 128.826Z" fill="white"/>
<path d="M226.507 170.176C229.345 169.43 227.474 165.919 225.102 166.758C222.724 167.598 223.663 170.923 226.507 170.176Z" fill="white"/>
<path d="M286.353 92.9198C286.412 92.6067 286.013 92.6249 285.983 92.893C285.946 93.1624 286.294 93.2329 286.353 92.9198Z" fill="white"/>
<path d="M295.26 70.7024C295.346 70.2661 294.784 70.2895 294.743 70.6647C294.697 71.0474 295.175 71.1388 295.26 70.7024Z" fill="white"/>
<path d="M309.642 234.549C310.95 234.205 310.089 232.592 308.998 232.98C307.907 233.368 308.334 234.894 309.642 234.549Z" fill="white"/>
<path d="M313.521 226.709C313.893 226.644 314.024 225.989 313.398 226.07C312.77 226.146 313.15 226.774 313.521 226.709Z" fill="white"/>
<path d="M279.402 226.772C280.029 226.657 280.252 225.563 279.194 225.696C278.134 225.822 278.774 226.886 279.402 226.772Z" fill="white"/>
<path d="M288.074 221.938C289.53 221.676 290.043 219.142 287.591 219.438C285.145 219.734 286.624 222.199 288.074 221.938Z" fill="white"/>
<path d="M282.879 124.296C283.136 123.34 281.86 122.287 281.349 123.85C280.832 125.414 282.622 125.251 282.879 124.296Z" fill="white"/>
<path d="M395.756 102.047C396.284 99.2995 392.761 99.4355 392.49 101.818C392.22 104.208 395.228 104.795 395.756 102.047Z" fill="white"/>
<path d="M394.655 77.3725C397.493 76.627 395.622 73.1151 393.25 73.9544C390.878 74.7936 391.817 78.1179 394.655 77.3725Z" fill="white"/>
<path d="M396.35 60.9599C396.409 60.6468 396.009 60.665 395.979 60.9332C395.949 61.2013 396.29 61.2731 396.35 60.9599Z" fill="white"/>
<path d="M389.4 194.811C390.027 194.697 390.25 193.603 389.192 193.736C388.132 193.862 388.772 194.926 389.4 194.811Z" fill="white"/>
<path d="M398.072 189.978C399.528 189.716 400.041 187.182 397.589 187.478C395.144 187.78 396.622 190.239 398.072 189.978Z" fill="white"/>
<path d="M391.027 97.5187C391.284 96.5631 390.009 95.5097 389.497 97.0725C388.986 98.6353 390.771 98.4742 391.027 97.5187Z" fill="white"/>
<path opacity="0.35" d="M466.848 236.395C439.05 259.257 410.746 264.721 401.522 282.43C392.297 300.139 453.92 296.922 468.303 271.749C482.687 246.582 466.848 236.395 466.848 236.395Z" fill="#8DA1E5"/>
<path opacity="0.17" d="M351.145 144.236C349.156 150.844 338.324 169.593 338.383 182.036C338.442 194.478 343.591 208.917 342.254 206.34C340.919 203.768 334.716 195.192 335.695 187.078C336.674 178.965 343.908 158.036 343.483 154.435C343.058 150.835 340.464 149.32 347.165 140.049C353.864 130.771 355.484 130.74 354.83 133.164C354.177 135.589 351.145 144.236 351.145 144.236Z" fill="#8DA1E5"/>
<path d="M405.384 115.3C408.913 118.359 425.698 123.525 429.582 121.015C433.466 118.505 427.437 86.7206 428.035 89.0669C428.634 91.4131 438.815 120.866 437.198 126.561C435.58 132.251 431.16 139.617 431.498 136.44C431.836 133.263 430.744 122.005 427.864 122.562C424.983 123.119 421.131 128.537 415.627 126.056C410.112 123.583 404.468 114.505 405.384 115.3Z" fill="#8DA1E5"/>
<path opacity="0.17" d="M394.381 179.334C389.791 187.948 395.588 193.314 394.323 196.618C393.057 199.922 388.972 215.154 388.254 222.436C387.537 229.717 386.018 211.189 383.305 209.159C380.593 207.13 372.038 206.479 374.727 206.333C377.418 206.194 393.212 199.288 393.41 196.788C393.608 194.288 378.814 190.91 384.015 177.733C389.217 164.556 418.386 145.165 409.112 155.249C399.829 165.348 394.381 179.334 394.381 179.334Z" fill="#8DA1E5"/>
<path opacity="0.17" d="M378.99 250.237C394.074 256.421 398.031 277.517 397.73 271.49C397.429 265.462 398.568 247.444 391.008 242.091C383.448 236.737 352.693 250.172 349.747 254.142C346.801 258.112 343.201 271.124 351.174 275.813C359.148 280.502 345.024 268.067 349.289 259.109C353.555 250.163 366.151 244.971 378.99 250.237Z" fill="#8DA1E5"/>
<path d="M390.283 224.545C390.83 237.162 421.419 235.301 435.213 224.14C449.006 212.979 455.69 157.526 436.594 163.764C417.499 170.001 388.831 191.068 390.283 224.545Z" fill="white"/>
<path d="M402.052 167.15C399.835 172.286 426.217 166.859 429.535 151.44C432.849 136.028 409.414 150.083 402.052 167.15Z" fill="white"/>
<path d="M348.774 162.335C356.175 176.326 388.734 146.688 388.928 128.15C389.123 109.619 385.604 109.938 385.604 109.938C385.604 109.938 373.591 109.667 364.211 121.412C354.837 133.163 345.059 155.313 348.774 162.335Z" fill="white"/>
<path d="M398.093 103.513C401.991 110.959 417.783 91.7439 416.388 78.4568C414.992 65.1697 412.592 68.8637 401.582 77.1036C390.579 85.3487 395.124 97.8431 398.093 103.513Z" fill="white"/>
<path d="M383.457 57.6357C383.457 57.6357 428.451 53.8111 432.336 32.8073C436.22 11.8035 422.605 13.3844 383.457 57.6357Z" fill="white"/>
<path d="M390.455 251.159C393.768 253.197 391.011 239.13 388.963 238.449C386.914 237.768 382.127 246.039 390.455 251.159Z" fill="white"/>
<path d="M386.599 234.152C388.666 234.278 390.414 230.441 387.548 231.139C384.681 231.831 384.927 234.049 386.599 234.152Z" fill="white"/>
<path d="M354.503 209.1C357.428 207.471 356.192 204.237 353.827 205.606C351.462 206.969 352.094 210.438 354.503 209.1Z" fill="white"/>
<defs>
<linearGradient id="paint0_linear_495_22272" x1="83.7116" y1="214.241" x2="453.661" y2="142.742" gradientUnits="userSpaceOnUse">
<stop stop-color="#C4CEEF"/>
<stop offset="0.0914" stop-color="#B4C1EC"/>
<stop offset="0.246" stop-color="#9EAFE8"/>
<stop offset="0.3962" stop-color="#91A5E6"/>
<stop offset="0.5359" stop-color="#8DA1E5"/>
<stop offset="0.6484" stop-color="#95A8E7"/>
<stop offset="0.824" stop-color="#ABBAEB"/>
<stop offset="1" stop-color="#C8D1F0"/>
</linearGradient>
</defs>
</svg>
