<svg width="367" height="110" viewBox="0 0 367 110" fill="none" xmlns="http://www.w3.org/2000/svg">
<g filter="url(#filter0_d_999_6392)">
<circle cx="311.586" cy="49.5858" r="49.4139" fill="white"/>
<path fill-rule="evenodd" clip-rule="evenodd" d="M282.978 24.0503V70.275L309.527 78.2397V42.417L314.837 40.824V78.2397L341.386 70.275V24.0529L336.78 20.9812L312.182 28.3592L287.584 20.9785L282.978 24.0503ZM330.766 36.0584L320.147 39.2443V44.7878L330.766 41.6019V36.0584Z" fill="white"/>
<path fill-rule="evenodd" clip-rule="evenodd" d="M282.978 24.0503V70.275L309.527 78.2397V42.417L314.837 40.824V78.2397L341.386 70.275V24.0529L336.78 20.9812L312.182 28.3592L287.584 20.9785L282.978 24.0503ZM330.766 36.0584L320.147 39.2443V44.7878L330.766 41.6019V36.0584Z" fill="url(#paint0_linear_999_6392)"/>
<path fill-rule="evenodd" clip-rule="evenodd" d="M274.235 7.97363H46.9615C24.3391 7.97363 6 26.3127 6 48.9352C6 71.5576 24.3391 89.8967 46.9615 89.8967H272.837C262.255 79.723 255.671 65.4229 255.671 49.5849C255.671 33.0604 262.839 18.2101 274.235 7.97363Z" fill="#D9D9D9"/>
<path fill-rule="evenodd" clip-rule="evenodd" d="M274.235 7.97363H46.9615C24.3391 7.97363 6 26.3127 6 48.9352C6 71.5576 24.3391 89.8967 46.9615 89.8967H272.837C262.255 79.723 255.671 65.4229 255.671 49.5849C255.671 33.0604 262.839 18.2101 274.235 7.97363Z" fill="url(#paint1_linear_999_6392)"/>
<path d="M32.4106 52.5362V48.4167H36.9047V52.7859C36.9047 53.4101 37.2168 53.7222 37.8409 53.7222H42.0853C42.7095 53.7222 43.0216 53.4101 43.0216 52.7859V40.3024H37.1543V36.2452H47.5157V52.5362C47.5157 56.0316 45.768 57.7793 42.2726 57.7793H37.6537C34.1583 57.7793 32.4106 56.0316 32.4106 52.5362ZM52.3313 52.7235V41.3011H56.6381V53.0356C56.6381 53.7013 56.971 54.0342 57.6368 54.0342H62.1933V41.3011H66.5001V57.7793H57.3872C54.0166 57.7793 52.3313 56.094 52.3313 52.7235ZM71.2985 57.7793V34.6848H75.6053V47.5116L81.3165 41.3011H85.5609L85.9042 42.0189L80.193 48.167L86.3411 57.0615L85.9978 57.7793H81.7846L77.353 51.2567L75.6053 53.1604V57.7793H71.2985ZM89.5893 51.7872V34.6848H93.8961V52.2241C93.8961 53.5141 94.5619 54.2319 95.8934 54.3775V58.0914C91.6907 58.0914 89.5893 55.99 89.5893 51.7872ZM103.869 57.7793C100.499 57.7793 98.8137 56.1252 98.8137 52.8171C98.8137 49.509 100.499 47.8549 103.869 47.8549H108.176V46.0448C108.176 45.379 107.843 45.0461 107.178 45.0461H100.561V42.7054L102.434 41.3011H107.427C110.798 41.3011 112.483 42.9863 112.483 46.3569V57.7793H103.869ZM103.12 53.0356C103.12 53.7013 103.453 54.0342 104.119 54.0342H108.176V51.163H104.119C103.453 51.163 103.12 51.4959 103.12 52.1617V53.0356ZM117.158 57.7793V34.6848H121.465V47.5116L127.176 41.3011H131.421L131.764 42.0189L126.053 48.167L132.201 57.0615L131.858 57.7793H127.644L123.213 51.2567L121.465 53.1604V57.7793H117.158ZM142.759 52.5362V48.4167H147.253V52.7859C147.253 53.4101 147.565 53.7222 148.19 53.7222H152.434C153.058 53.7222 153.37 53.4101 153.37 52.7859V40.3024H147.503V36.2452H157.864V52.5362C157.864 56.0316 156.117 57.7793 152.621 57.7793H148.002C144.507 57.7793 142.759 56.0316 142.759 52.5362ZM162.68 52.7235V41.3011H166.987V53.0356C166.987 53.7013 167.32 54.0342 167.986 54.0342H172.542V41.3011H176.849V57.7793H167.736C164.365 57.7793 162.68 56.094 162.68 52.7235ZM181.647 57.7793V34.6848H185.954V47.5116L191.665 41.3011H195.91L196.253 42.0189L190.542 48.167L196.69 57.0615L196.347 57.7793H192.133L187.702 51.2567L185.954 53.1604V57.7793H181.647ZM200.063 57.7793V41.3011H209.176C212.546 41.3011 214.232 42.9863 214.232 46.3569V57.7793H209.925V46.0448C209.925 45.379 209.592 45.0461 208.926 45.0461H204.37V57.7793H200.063ZM218.811 38.5859V34.3727H223.306V38.5859H218.811ZM218.905 57.7793V41.3011H223.212V57.7793H218.905ZM227.463 56.3749V54.0342H234.641C235.349 54.0342 235.703 53.6389 235.703 52.8483C235.703 52.0369 235.411 51.5791 234.829 51.4751L231.458 50.9134C228.795 50.4556 227.463 48.916 227.463 46.2945C227.463 42.9655 229.149 41.3011 232.519 41.3011H237.357L239.229 42.7054V45.0461H232.769C232.061 45.0461 231.708 45.4414 231.708 46.232C231.708 47.0643 232.03 47.5324 232.675 47.6364L236.015 48.1982C238.657 48.6351 239.978 50.1539 239.978 52.7547C239.978 56.1044 238.282 57.7793 234.891 57.7793H229.336L227.463 56.3749Z" fill="white"/>
</g>
<defs>
<filter id="filter0_d_999_6392" x="0.798535" y="0.171875" width="365.403" height="109.231" filterUnits="userSpaceOnUse" color-interpolation-filters="sRGB">
<feFlood flood-opacity="0" result="BackgroundImageFix"/>
<feColorMatrix in="SourceAlpha" type="matrix" values="0 0 0 0 0 0 0 0 0 0 0 0 0 0 0 0 0 0 127 0" result="hardAlpha"/>
<feOffset dy="5.20147"/>
<feGaussianBlur stdDeviation="2.60073"/>
<feComposite in2="hardAlpha" operator="out"/>
<feColorMatrix type="matrix" values="0 0 0 0 0 0 0 0 0 0 0 0 0 0 0 0 0 0 0.25 0"/>
<feBlend mode="normal" in2="BackgroundImageFix" result="effect1_dropShadow_999_6392"/>
<feBlend mode="normal" in="SourceGraphic" in2="effect1_dropShadow_999_6392" result="shape"/>
</filter>
<linearGradient id="paint0_linear_999_6392" x1="282.978" y1="49.6091" x2="341.386" y2="49.6091" gradientUnits="userSpaceOnUse">
<stop stop-color="#DE32C8"/>
<stop offset="1" stop-color="#3285E3"/>
</linearGradient>
<linearGradient id="paint1_linear_999_6392" x1="6" y1="48.9352" x2="274.235" y2="48.9352" gradientUnits="userSpaceOnUse">
<stop stop-color="#DE32C8"/>
<stop offset="1" stop-color="#3285E3"/>
</linearGradient>
</defs>
</svg>
